<?xml version="1.0" standalone="no"?><!DOCTYPE svg PUBLIC "-//W3C//DTD SVG 1.1//EN" "http://www.w3.org/Graphics/SVG/1.1/DTD/svg11.dtd"><svg t="1652886018470" class="icon" viewBox="0 0 1024 1024" version="1.1" xmlns="http://www.w3.org/2000/svg" p-id="3061" xmlns:xlink="http://www.w3.org/1999/xlink" width="200" height="200"><defs><style type="text/css">@font-face { font-family: feedback-iconfont; src: url("//at.alicdn.com/t/font_1031158_u69w8yhxdu.woff2?t=1630033759944") format("woff2"), url("//at.alicdn.com/t/font_1031158_u69w8yhxdu.woff?t=1630033759944") format("woff"), url("//at.alicdn.com/t/font_1031158_u69w8yhxdu.ttf?t=1630033759944") format("truetype"); }
</style></defs><path d="M970.666667 213.333333H546.586667a10.573333 10.573333 0 0 1-7.54-3.126666L429.793333 100.953333A52.986667 52.986667 0 0 0 392.08 85.333333H96a53.393333 53.393333 0 0 0-53.333333 53.333334v704a53.393333 53.393333 0 0 0 53.333333 53.333333h874.666667a53.393333 53.393333 0 0 0 53.333333-53.333333V266.666667a53.393333 53.393333 0 0 0-53.333333-53.333334zM661.333333 554.666667H554.666667v106.666666a21.333333 21.333333 0 0 1-42.666667 0V554.666667H405.333333a21.333333 21.333333 0 0 1 0-42.666667h106.666667V405.333333a21.333333 21.333333 0 0 1 42.666667 0v106.666667h106.666666a21.333333 21.333333 0 0 1 0 42.666667z" fill="#AFB1B3" p-id="3062"></path></svg>