<?xml version="1.0" standalone="no"?><!DOCTYPE svg PUBLIC "-//W3C//DTD SVG 1.1//EN" "http://www.w3.org/Graphics/SVG/1.1/DTD/svg11.dtd"><svg t="1650879735158" class="icon" viewBox="0 0 1024 1024" version="1.1" xmlns="http://www.w3.org/2000/svg" p-id="4391" width="200" height="200" xmlns:xlink="http://www.w3.org/1999/xlink"><defs><style type="text/css">@font-face { font-family: feedback-iconfont; src: url("//at.alicdn.com/t/font_1031158_u69w8yhxdu.woff2?t=1630033759944") format("woff2"), url("//at.alicdn.com/t/font_1031158_u69w8yhxdu.woff?t=1630033759944") format("woff"), url("//at.alicdn.com/t/font_1031158_u69w8yhxdu.ttf?t=1630033759944") format("truetype"); }
</style></defs><path d="M682.714453 768a42.666667 42.666667 0 0 1 42.666667 42.666667v170.666666a42.666667 42.666667 0 0 1-85.333333 0v-170.666666a42.666667 42.666667 0 0 1 42.666666-42.666667z m-388.352-314.325333a42.666667 42.666667 0 0 1 0 60.330666l-164.309333 164.352a152.490667 152.490667 0 0 0 215.68 215.637334l164.309333-164.352a42.666667 42.666667 0 0 1 60.330667 60.373333l-164.309333 164.309333a237.824 237.824 0 0 1-336.341334-336.341333l164.309334-164.309333a42.666667 42.666667 0 0 1 60.330666 0z m564.181334 344.490666l120.704 120.704a42.666667 42.666667 0 0 1-60.330667 60.330667l-120.704-120.704a42.666667 42.666667 0 1 1 60.330667-60.330667zM981.38112 640a42.666667 42.666667 0 0 1 0 85.333333h-170.666667a42.666667 42.666667 0 0 1 0-85.333333h170.666667z m-27.008-570.325333a237.824 237.824 0 0 1 0 336.341333l-164.309333 164.309333a42.666667 42.666667 0 1 1-60.330667-60.330666l164.309333-164.352a152.490667 152.490667 0 0 0-215.68-215.637334l-164.309333 164.352a42.666667 42.666667 0 0 1-60.330667-60.373333l164.309334-164.309333a237.824 237.824 0 0 1 336.341333 0zM213.38112 298.666667a42.666667 42.666667 0 0 1 0 85.333333H42.714453a42.666667 42.666667 0 0 1 0-85.333333h170.666667zM133.210453 72.832L253.914453 193.536A42.666667 42.666667 0 0 1 193.583787 253.866667L72.879787 133.12a42.666667 42.666667 0 1 1 60.330666-60.330667zM341.38112 0a42.666667 42.666667 0 0 1 42.666667 42.666667v170.666666a42.666667 42.666667 0 0 1-85.333334 0V42.666667a42.666667 42.666667 0 0 1 42.666667-42.666667z" p-id="4392" fill="#AFB1B3"></path></svg>