<?xml version="1.0" standalone="no"?><!DOCTYPE svg PUBLIC "-//W3C//DTD SVG 1.1//EN" "http://www.w3.org/Graphics/SVG/1.1/DTD/svg11.dtd"><svg t="1652795872348" class="icon" viewBox="0 0 1024 1024" version="1.1" xmlns="http://www.w3.org/2000/svg" p-id="2819" xmlns:xlink="http://www.w3.org/1999/xlink" width="200" height="200"><defs><style type="text/css">@font-face { font-family: feedback-iconfont; src: url("//at.alicdn.com/t/font_1031158_u69w8yhxdu.woff2?t=1630033759944") format("woff2"), url("//at.alicdn.com/t/font_1031158_u69w8yhxdu.woff?t=1630033759944") format("woff"), url("//at.alicdn.com/t/font_1031158_u69w8yhxdu.ttf?t=1630033759944") format("truetype"); }
</style></defs><path d="M423.8 508.4l1.8 1.8-1.8-1.8zM425.8 508.2l-2.2 2.2c0.8-0.7 1.5-1.4 2.2-2.2zM462.9 511.1l-1.8 1.8 1.8-1.8z" fill="#AFB1B3" p-id="2820"></path><path d="M460.9 510.9l2.2 2.2c-0.7-0.8-1.4-1.5-2.2-2.2zM661.7 282c17.6 0 32 14.4 32 32v396c0 17.6-14.4 32-32 32s-32-14.4-32-32V314c0-17.6 14.4-32 32-32z" fill="#AFB1B3" p-id="2821"></path><path d="M592.6 511.9c0-8.3-3.1-15.8-8.3-21.5l-2.2-2.2-21.5-21.5L384.9 291c-12.4-12.4-32.8-12.4-45.3 0-12.4 12.4-12.4 32.8 0 45.3L515.4 512 339.7 687.8c-12.4 12.4-12.4 32.8 0 45.3 12.4 12.4 32.8 12.4 45.2-0.1l175.7-175.7 21.8-21.8 1.8-1.8c5.3-5.7 8.5-13.4 8.4-21.8z" fill="#AFB1B3" p-id="2822"></path></svg>