<?xml version="1.0" standalone="no"?><!DOCTYPE svg PUBLIC "-//W3C//DTD SVG 1.1//EN" "http://www.w3.org/Graphics/SVG/1.1/DTD/svg11.dtd"><svg t="1652796031087" class="icon" viewBox="0 0 1024 1024" version="1.1" xmlns="http://www.w3.org/2000/svg" p-id="4204" xmlns:xlink="http://www.w3.org/1999/xlink" width="200" height="200"><defs><style type="text/css">@font-face { font-family: feedback-iconfont; src: url("//at.alicdn.com/t/font_1031158_u69w8yhxdu.woff2?t=1630033759944") format("woff2"), url("//at.alicdn.com/t/font_1031158_u69w8yhxdu.woff?t=1630033759944") format("woff"), url("//at.alicdn.com/t/font_1031158_u69w8yhxdu.ttf?t=1630033759944") format("truetype"); }
</style></defs><path d="M511.1 511.1l1.8 1.8-1.8-1.8zM513.1 510.9l-2.2 2.2c0.8-0.7 1.5-1.4 2.2-2.2z" fill="#AFB1B3" p-id="4205"></path><path d="M375.9 512.1c0 8.3 3.1 15.8 8.3 21.5l2.2 2.2 21.5 21.5L593.6 743c12.4 12.4 32.8 12.4 45.3 0 12.4-12.4 12.4-32.8 0-45.3L453.1 512l185.7-185.8c12.4-12.4 12.4-32.8 0-45.3-12.4-12.4-32.8-12.4-45.2 0.1L407.9 466.7l-21.8 21.8-1.8 1.8c-5.3 5.7-8.5 13.4-8.4 21.8z" fill="#AFB1B3" p-id="4206"></path></svg>