<?xml version="1.0" standalone="no"?><!DOCTYPE svg PUBLIC "-//W3C//DTD SVG 1.1//EN" "http://www.w3.org/Graphics/SVG/1.1/DTD/svg11.dtd"><svg t="1650768780322" class="icon" viewBox="0 0 1024 1024" version="1.1" xmlns="http://www.w3.org/2000/svg" p-id="22612" xmlns:xlink="http://www.w3.org/1999/xlink" width="200" height="200"><defs><style type="text/css">@font-face { font-family: feedback-iconfont; src: url("//at.alicdn.com/t/font_1031158_u69w8yhxdu.woff2?t=1630033759944") format("woff2"), url("//at.alicdn.com/t/font_1031158_u69w8yhxdu.woff?t=1630033759944") format("woff"), url("//at.alicdn.com/t/font_1031158_u69w8yhxdu.ttf?t=1630033759944") format("truetype"); }
</style></defs><path d="M947.960675 199.328791l-92.764753 92.548836-123.656321-123.434264 92.768847-92.548836c17.024745-17.029862 44.745087-17.029862 61.824067 0l61.828161 61.715597C965.044772 154.637939 965.044772 182.305069 947.960675 199.328791zM298.47437 600.418772l123.656321 123.434264-164.803463 41.091884L298.47437 600.418772zM824.308447 322.766125 453.287295 693.022866 329.634044 569.586556l370.962823-370.256742L824.308447 322.766125zM154.843112 196.272175l0 673.501254 673.503301 0L828.346413 383.884111l87.855954-87.853907L916.202367 913.702941c0 24.287149-19.641339 43.930535-43.927465 43.930535L110.91667 957.633477c-24.282033 0-43.927465-19.642362-43.927465-43.930535L66.989205 152.34471c0-24.281009 19.645432-43.926442 43.927465-43.926442l620.184955 0-87.85493 87.853907L154.843112 196.272175z" p-id="22613" fill="#AFB1B3"></path></svg>