<?xml version="1.0" standalone="no"?><!DOCTYPE svg PUBLIC "-//W3C//DTD SVG 1.1//EN" "http://www.w3.org/Graphics/SVG/1.1/DTD/svg11.dtd"><svg t="1650769111678" class="icon" viewBox="0 0 1024 1024" version="1.1" xmlns="http://www.w3.org/2000/svg" p-id="26486" xmlns:xlink="http://www.w3.org/1999/xlink" width="200" height="200"><defs><style type="text/css">@font-face { font-family: feedback-iconfont; src: url("//at.alicdn.com/t/font_1031158_u69w8yhxdu.woff2?t=1630033759944") format("woff2"), url("//at.alicdn.com/t/font_1031158_u69w8yhxdu.woff?t=1630033759944") format("woff"), url("//at.alicdn.com/t/font_1031158_u69w8yhxdu.ttf?t=1630033759944") format("truetype"); }
</style></defs><path d="M938.666667 853.333333v85.333334H682.666667V512h85.333333v341.333333z m-725.333334-170.666666a42.666667 42.666667 0 1 1 42.666667-42.666667h85.333333a128 128 0 1 0-128 128 42.666667 42.666667 0 1 1-42.666666 42.666667H85.333333a128 128 0 1 0 128-128zM725.333333 85.333333l213.333334 213.333334v170.666666h-85.333334v-135.253333L689.92 170.666667H170.666667v298.666666H85.333333V85.333333zM512 512a128 128 0 0 0-128 128v170.666667a128 128 0 0 0 128 128h128V640a128 128 0 0 0-128-128z m-42.666667 298.666667v-170.666667a42.666667 42.666667 0 0 1 85.333334 0v170.666667a42.666667 42.666667 0 0 1-85.333334 0z" p-id="26487" fill="#AFB1B3"></path></svg>