<?xml version="1.0" standalone="no"?><!DOCTYPE svg PUBLIC "-//W3C//DTD SVG 1.1//EN" "http://www.w3.org/Graphics/SVG/1.1/DTD/svg11.dtd"><svg t="1652779985844" class="icon" viewBox="0 0 1024 1024" version="1.1" xmlns="http://www.w3.org/2000/svg" p-id="5763" xmlns:xlink="http://www.w3.org/1999/xlink" width="200" height="200"><defs><style type="text/css">@font-face { font-family: feedback-iconfont; src: url("//at.alicdn.com/t/font_1031158_u69w8yhxdu.woff2?t=1630033759944") format("woff2"), url("//at.alicdn.com/t/font_1031158_u69w8yhxdu.woff?t=1630033759944") format("woff"), url("//at.alicdn.com/t/font_1031158_u69w8yhxdu.ttf?t=1630033759944") format("truetype"); }
</style></defs><path d="M1022.293364 470.409918a511.990827 511.990827 0 1 0-551.883445 551.883446 513.484133 513.484133 0 0 0 551.883445-551.883446zM625.073814 549.768497l100.264871 100.05154A53.332378 53.332378 0 1 1 649.820038 725.338684l-100.051541-100.26487a53.759037 53.759037 0 0 0-75.518647 0L374.198309 725.338684A53.332378 53.332378 0 1 1 298.679662 649.820037l100.264871-100.05154a53.759037 53.759037 0 0 0 0-75.518647L298.679662 374.198309A53.332378 53.332378 0 0 1 374.198309 298.679662l100.051541 100.26487a53.759037 53.759037 0 0 0 75.518647 0l100.051541-100.26487A53.332378 53.332378 0 1 1 725.338685 374.198309l-100.264871 100.051541a53.759037 53.759037 0 0 0 0 75.518647z" fill="#D33737" p-id="5764"></path></svg>