<?xml version="1.0" standalone="no"?><!DOCTYPE svg PUBLIC "-//W3C//DTD SVG 1.1//EN" "http://www.w3.org/Graphics/SVG/1.1/DTD/svg11.dtd"><svg t="1652796041337" class="icon" viewBox="0 0 1024 1024" version="1.1" xmlns="http://www.w3.org/2000/svg" p-id="5064" xmlns:xlink="http://www.w3.org/1999/xlink" width="200" height="200"><defs><style type="text/css">@font-face { font-family: feedback-iconfont; src: url("//at.alicdn.com/t/font_1031158_u69w8yhxdu.woff2?t=1630033759944") format("woff2"), url("//at.alicdn.com/t/font_1031158_u69w8yhxdu.woff?t=1630033759944") format("woff"), url("//at.alicdn.com/t/font_1031158_u69w8yhxdu.ttf?t=1630033759944") format("truetype"); }
</style></defs><path d="M511.1 511.1l1.8 1.8-1.8-1.8zM513.1 510.9l-2.2 2.2c0.8-0.7 1.5-1.4 2.2-2.2z" fill="#AFB1B3" p-id="5065"></path><path d="M639.7 490.3l-1.8-1.8-21.8-21.8L430.4 281c-12.4-12.5-32.8-12.5-45.2-0.1-12.4 12.5-12.4 32.9 0 45.3L570.9 512 385.1 697.7c-12.4 12.5-12.4 32.9 0 45.3 12.5 12.4 32.9 12.4 45.3 0l185.7-185.7 21.5-21.5 2.2-2.2c5.2-5.7 8.3-13.2 8.3-21.5 0.1-8.4-3.1-16.1-8.4-21.8z" fill="#AFB1B3" p-id="5066"></path></svg>