<?xml version="1.0" standalone="no"?><!DOCTYPE svg PUBLIC "-//W3C//DTD SVG 1.1//EN" "http://www.w3.org/Graphics/SVG/1.1/DTD/svg11.dtd"><svg t="1650768621018" class="icon" viewBox="0 0 1024 1024" version="1.1" xmlns="http://www.w3.org/2000/svg" p-id="19888" width="200" height="200" xmlns:xlink="http://www.w3.org/1999/xlink"><defs><style type="text/css">@font-face { font-family: feedback-iconfont; src: url("//at.alicdn.com/t/font_1031158_u69w8yhxdu.woff2?t=1630033759944") format("woff2"), url("//at.alicdn.com/t/font_1031158_u69w8yhxdu.woff?t=1630033759944") format("woff"), url("//at.alicdn.com/t/font_1031158_u69w8yhxdu.ttf?t=1630033759944") format("truetype"); }
</style></defs><path d="M832 640l-128 0 0-256 128 0c105.9 0 192-86.1 192-192s-86.1-192-192-192-192 86.1-192 192l0 128L384 320l0-128c0-105.9-86.1-192-192-192s-192 86.1-192 192 86.1 192 192 192l128 0 0 256L192 640c-105.9 0-192 86.1-192 192 0 105.9 86.1 192 192 192s192-86.1 192-192l0-128 256 0 0 128c0 105.9 86.1 192 192 192s192-86.1 192-192S937.9 640 832 640zM704 192c0-70.6 57.4-128 128-128s128 57.4 128 128-57.4 128-128 128l-128 0L704 192zM192 320c-70.6 0-128-57.4-128-128s57.4-128 128-128 128 57.4 128 128l0 128L192 320zM320 832c0 70.6-57.4 128-128 128s-128-57.4-128-128 57.4-128 128-128l128 0L320 832zM384 384l256 0 0 256L384 640 384 384zM832 960c-70.6 0-128-57.4-128-128l0-128 128 0c70.6 0 128 57.4 128 128S902.6 960 832 960z" p-id="19889" fill="#AFB1B3"></path></svg>