<?xml version="1.0" standalone="no"?><!DOCTYPE svg PUBLIC "-//W3C//DTD SVG 1.1//EN" "http://www.w3.org/Graphics/SVG/1.1/DTD/svg11.dtd"><svg t="1651215556309" class="icon" viewBox="0 0 1024 1024" version="1.1" xmlns="http://www.w3.org/2000/svg" p-id="3755" width="200" height="200" xmlns:xlink="http://www.w3.org/1999/xlink"><defs><style type="text/css">@font-face { font-family: feedback-iconfont; src: url("//at.alicdn.com/t/font_1031158_u69w8yhxdu.woff2?t=1630033759944") format("woff2"), url("//at.alicdn.com/t/font_1031158_u69w8yhxdu.woff?t=1630033759944") format("woff"), url("//at.alicdn.com/t/font_1031158_u69w8yhxdu.ttf?t=1630033759944") format("truetype"); }
</style></defs><path d="M1024 797v131c0 53-43 96-96 96h-96c-53 0-96-43-96-96V797c0-26.5 10.7-50.5 28.1-67.9 17.4-17.4 41.4-28.1 67.9-28.1 8.8 0 16-7.2 16-16v-77c0-17.7-14.3-32-32-32H560c-8.8 0-16 7.2-16 16v94c0 8.3 6.7 15 15 15h1c53 0 96 43 96 96v131c0 53-43 96-96 96h-96c-53 0-96-43-96-96V797c0-53 43-96 96-96h1c8.3 0 15-6.7 15-15v-94c0-8.8-7.2-16-16-16H208c-17.7 0-32 14.3-32 32v77c0 4.4 1.8 8.4 4.7 11.3 2.9 2.9 6.9 4.7 11.3 4.7 53 0 96 43 96 96v131c0 53-43 96-96 96H96c-53 0-96-43-96-96V797c0-26.5 10.7-50.5 28.1-67.9C45.5 711.7 69.5 701 96 701c8.8 0 16-7.2 16-16v-77c0-53 43-96 96-96h256c8.8 0 16-7.2 16-16v-96c0-8.8-7.2-16-16-16h-48c-53 0-96-43-96-96V96c0-53 43-96 96-96h192c53 0 96 43 96 96v192c0 53-43 96-96 96h-48c-8.8 0-16 7.2-16 16v96c0 8.8 7.2 16 16 16h256c53 0 96 43 96 96v77c0 8.8 7.2 16 16 16 53 0 96 43 96 96z" p-id="3756" fill="#3F93B0"></path></svg>