<?xml version="1.0" standalone="no"?><!DOCTYPE svg PUBLIC "-//W3C//DTD SVG 1.1//EN" "http://www.w3.org/Graphics/SVG/1.1/DTD/svg11.dtd"><svg t="1650351389339" class="icon" viewBox="0 0 1024 1024" version="1.1" xmlns="http://www.w3.org/2000/svg" p-id="8624" xmlns:xlink="http://www.w3.org/1999/xlink" width="128" height="128"><defs><style type="text/css">@font-face { font-family: feedback-iconfont; src: url("//at.alicdn.com/t/font_1031158_u69w8yhxdu.woff2?t=1630033759944") format("woff2"), url("//at.alicdn.com/t/font_1031158_u69w8yhxdu.woff?t=1630033759944") format("woff"), url("//at.alicdn.com/t/font_1031158_u69w8yhxdu.ttf?t=1630033759944") format("truetype"); }
</style></defs><path d="M343.19754 0.179169C233.239183 42.386182 210.587147 228.004899 211.764541 247.636664c1.177394 19.554978 22.805609 49.37376-40.184967 91.478391-62.990577 42.104632-71.02757 31.994401-65.83168 60.814957 3.583373 20.39963 25.800285 31.994401 34.425976 42.693329 8.702477 10.698928 16.304347 23.880621 4.274452 37.932562-7.345914 8.676882-24.648487 11.185243-14.205514 35.168245 9.188792 20.885945 39.442698 23.138351 49.476141 25.467543 3.685755 0.844652-27.489589-4.504812-40.594496 1.330968-9.444747 4.095283-20.374035 20.62999-14.205514 30.996175 6.270903 10.519759 22.62644 15.280526 27.233634 18.224011 4.504812 2.994676 3.173845 21.37226 3.506587 26.312195 1.433349 21.474642-12.106681 40.108181-20.706777 59.739946-9.188792 21.065114 5.016722 65.063814 51.626166 74.866898 46.532657 9.777489 65.166196 9.342365 99.003474 12.439423 0 0 202.921289 25.288375 245.589022 0 42.667733-25.288375 143.155748-178.503162 174.996576-195.933711 33.069413-18.096033 105.018422-7.473892 160.714275-11.134052a616.544905 616.544905 0 0 0 52.726772-125.520434c-248.225361-182.444872-0.051191 0-576.411128-432.333941z m146.329593 364.633789a112.748269 112.748269 0 1 1 0-225.496538 112.748269 112.748269 0 0 1 0 225.496538z" fill="#FFC581" p-id="8625"></path><path d="M489.527133 252.064689m-112.748269 0a112.748269 112.748269 0 1 0 225.496538 0 112.748269 112.748269 0 1 0-225.496538 0Z" fill="#EAAD6C" p-id="8626"></path><path d="M706.11643 569.193191c-31.840828 17.43055-132.328842 170.645337-174.996576 195.933712-42.667733 25.288375-245.589022 0-245.589022 0 60.994126 5.605419 107.526783 95.983203 112.620292 170.773314l371.954108-126.262704c-2.713125-111.596471 47.838028-162.68513 96.699877-251.578373-55.670258 3.634564-127.619267-6.987577-160.688679 11.134051z" fill="#EAAD6C" p-id="8627"></path><path d="M398.151124 935.874622L368.22996 1024s337.88647-59.432799 409.118804-145.356963c-4.556003-25.595521-6.731622-48.273152-7.243532-69.031119l-371.954108 126.262704z" fill="#EFF2F4" p-id="8628"></path><path d="M869.722998 135.221136c2.380383-1.356563 5.861374-3.19944 10.442973-5.528632 4.632789-2.380383 7.934611-4.120879 9.956658-5.272677a5.170295 5.170295 0 0 0 2.278001-2.354788 4.351239 4.351239 0 0 0 0.383933-3.071463c-1.023821-5.503037-4.581598-15.510886-10.647737-30.023546a5.272677 5.272677 0 0 0-2.482765-2.610743 4.300047 4.300047 0 0 0-3.4298-0.255955l-23.112756 5.067913-0.230359 0.051191a83.057465 83.057465 0 0 0-8.907241-9.572725l0.076786-0.307146 6.808409-23.752643a3.967306 3.967306 0 0 0-0.204765-3.276227 5.119104 5.119104 0 0 0-2.508361-2.405979l-27.131252-12.439423c-2.354788-1.075012-4.351239-0.614292-5.963756 1.407754a223.525683 223.525683 0 0 0-13.847177 20.885945l-0.127977 0.230359a78.936586 78.936586 0 0 0-13.25848-0.460719l-0.153573-0.23036-10.750119-20.604394a5.528632 5.528632 0 0 0-2.636339-2.661934c-1.049416-0.486315-3.480991-0.204764-6.961981 0.716674a98.79871 98.79871 0 0 0-8.600095 2.713126c-6.347689 2.303597-11.262029 4.300047-14.819807 5.963756a61.096508 61.096508 0 0 0-3.225035 1.638113 5.579824 5.579824 0 0 0-2.380384 2.303597 4.991127 4.991127 0 0 0-0.127977 3.480991c2.431574 9.060814 4.197665 16.611493 5.323868 22.754418l0.025595 0.102382c-3.762542 2.815507-7.038768 5.835779-9.931062 9.060814l-0.051191-0.025595-24.238958-6.987577a3.916115 3.916115 0 0 0-3.045867 0.537506 5.170295 5.170295 0 0 0-2.278001 2.354788l-12.439423 27.131252a4.965531 4.965531 0 0 0-0.332742 3.327417c0.255955 1.151798 0.870248 2.047642 1.868473 2.713126l20.732372 13.463243 0.127977 0.076787a66.292399 66.292399 0 0 0-0.537505 14.384683l-0.102383 0.076786c-2.405979 1.356563-5.861374 3.19944-10.442972 5.528633-4.632789 2.354788-7.934611 4.120879-9.956658 5.272677a5.170295 5.170295 0 0 0-2.713125 5.554228c1.177394 5.861374 4.735171 15.792436 10.750119 29.767591 0.486315 1.305372 1.279776 2.22681 2.431574 2.73872a4.837553 4.837553 0 0 0 3.557778 0.307147l22.984777-5.119104 0.23036-0.051191c2.559552 3.250631 5.528632 6.424476 8.932837 9.572724l-0.102382 0.281551-6.808409 23.752643a4.095283 4.095283 0 0 0 0.204764 3.276227 5.042318 5.042318 0 0 0 2.533957 2.405979l27.131252 12.439423c2.354788 1.075012 4.351239 0.614292 5.963756-1.407754 2.892294-3.557777 7.525083-10.545355 13.847177-20.885945l0.127978-0.204764c4.376834 0.537506 8.804859 0.665484 13.232884 0.46072l0.127978 0.230359 0.460719-0.051191 10.468568 20.271653a6.654835 6.654835 0 0 0 2.68753 2.559552c1.791686 0.819057 6.936386-0.307146 15.459694-3.404204 8.523308-3.097058 14.563851-5.65661 18.147224-7.653061a4.453621 4.453621 0 0 0 2.380384-2.303597 5.221486 5.221486 0 0 0 0.179168-3.608968 330.182218 330.182218 0 0 1-5.272677-22.600845c2.943485-2.22681 6.117329-5.119104 9.572725-8.702477l0.051191 0.025595 0.358337-0.460719 23.983003 6.885195a4.146474 4.146474 0 0 0 3.173845-0.46072 5.170295 5.170295 0 0 0 2.278001-2.354787l12.439423-27.131252a5.119104 5.119104 0 0 0 0.332742-3.327418 4.17207 4.17207 0 0 0-1.868473-2.713125l-20.681181-13.565626a77.400855 77.400855 0 0 1-6.62924 22.805609c3.301822-7.269128 5.42625-14.768615 6.398881-22.319294l-0.102383-0.076787c0.563101-4.479216 0.74227-9.239983 0.486315-14.282301l0.102382-0.051191z m-46.942185 18.68473a33.095008 33.095008 0 0 1-19.324618 17.916865 33.120604 33.120604 0 0 1-26.312195-0.97263 33.120604 33.120604 0 0 1-17.916865-19.299022 33.120604 33.120604 0 0 1 0.97263-26.312196c3.967306-8.625691 10.391781-14.615042 19.324618-17.916864a33.120604 33.120604 0 0 1 26.312196 0.972629c8.651286 3.967306 14.615042 10.391781 17.916864 19.299023s2.994676 17.660909-0.97263 26.312195z" fill="#59BA98" p-id="8629"></path><path d="M706.11643 532.361237l0 0zM671.383308 413.879571z" fill="#F8FCFF" p-id="8630"></path><path d="M547.910516 405.330667l21.935361-21.935361a125.187692 125.187692 0 0 0-8.292949 7.525083 234.506161 234.506161 0 0 0-13.642412 14.410278zM636.547804 142.823006c-5.682206-8.062589-18.68473-21.474642-39.058765-40.261754a9.08641 9.08641 0 0 0-5.912565-2.354788 7.576274 7.576274 0 0 0-5.682205 2.124428l-33.299773 25.08361-0.332742 0.255956a146.073637 146.073637 0 0 0-21.295473-8.779264l-0.076787-0.537506-6.552453-43.051666a7.013173 7.013173 0 0 0-2.713125-5.093508 9.009623 9.009623 0 0 0-5.810183-2.022047h-52.5732c-4.581598 0-7.422701 2.201215-8.523309 6.654836a117.509036 117.509036 0 0 0-1.663708 7.704252l167.855425 125.904366a141.338466 141.338466 0 0 0-9.444747-22.600845 9.035219 9.035219 0 0 0 26.747319-37.88137 7.448297 7.448297 0 0 0-1.663709-5.1447zM671.383308 223.295323a8.958432 8.958432 0 0 0-1.894069-5.554228 7.397106 7.397106 0 0 0-4.965531-2.96908l-43.128452-6.603644 0.179168 0.793461 49.808884 37.36946v-23.035969z" fill="#3BAFDA" p-id="8631"></path><path d="M451.210638 973.320869m-19.094258 0a19.094259 19.094259 0 1 0 38.188517 0 19.094259 19.094259 0 1 0-38.188517 0Z" fill="#A0A1A2" p-id="8632"></path><path d="M621.548829 208.987427c3.864924 12.695378 5.989352 26.158622 5.989352 40.133777l-0.025596 0.486315a137.959857 137.959857 0 0 0-6.142925-40.440923l-0.204764-0.025596c-0.076787-0.204764-0.204764-0.409528-0.255955-0.614292l-167.855425-125.904367c-1.586922 8.369735-3.301822 20.297248-5.1447 35.88492l-0.051191 0.46072c-7.422701 2.380383-14.589447 5.375059-21.525833 9.009623l-0.383933-0.332742L393.620716 102.561252a10.033444 10.033444 0 0 0-6.142925-2.354788c-2.073237 0-5.733397 2.252406-10.647736 6.270902l-31.098558 31.098558a75.737146 75.737146 0 0 0-3.967306 5.016722 9.854276 9.854276 0 0 0-2.124428 5.451846 8.958432 8.958432 0 0 0 2.354788 5.682206c10.519759 12.720974 18.91509 23.547879 25.211588 32.531907l0.127978 0.153573a118.45607 118.45607 0 0 0-9.239983 21.781788l-0.102383 0.025596-43.921913 6.603644a7.089959 7.089959 0 0 0-4.504812 3.097058 8.984028 8.984028 0 0 0-1.894068 5.451846v52.547604c0 2.047642 0.614292 3.916115 1.894068 5.579824a7.499488 7.499488 0 0 0 4.965531 2.96908l43.077262 6.373285 0.28155 0.025595c2.175619 7.729847 5.451846 15.536481 9.700703 23.419902a9.035219 9.035219 0 0 0-26.772915 37.88137c0 2.047642 0.563101 3.864924 1.663709 5.451846 6.168521 8.523308 19.171045 21.781788 39.058765 39.77544a8.164971 8.164971 0 0 0 5.912565 2.610743 8.446522 8.446522 0 0 0 5.912565-2.124428l33.043817-25.083611 0.332742-0.255955c6.475667 3.327418 13.565626 6.219712 21.321069 8.779264l0.076787 0.537506 6.552453 43.051666a7.166746 7.166746 0 0 0 2.713125 5.093508 8.958432 8.958432 0 0 0 5.810183 1.996451h52.5732c4.581598 0 7.422701-2.201215 8.523308-6.62924 2.047642-7.832229 4.300047-22.396081 6.834005-43.614768l0.051191-0.435123c7.422701-2.380383 14.589447-5.375059 21.525833-9.009624l0.358337 0.255956 0.691079-0.435124 31.610468 24.776464a11.748344 11.748344 0 0 0 6.168521 2.124428c3.455395 0 10.903692-5.605419 22.242507-16.816257 11.364411-11.210838 19.171045-19.734147 23.445497-25.569925 1.433349-1.561327 2.124428-3.404204 2.124428-5.451846s-0.793461-4.018497-2.354787-5.912566a587.110056 587.110056 0 0 1-25.058015-32.301547 151.269528 151.269528 0 0 0 8.958432-20.937136l0.102382-0.025595c0.102382-0.332742 0.127978-0.665484 0.255955-1.023821l43.461195-6.578049a7.217937 7.217937 0 0 0 4.735171-3.071463 9.035219 9.035219 0 0 0 1.894068-5.451845V246.356888l-49.808883-37.369461z m-132.021696 155.825531a112.748269 112.748269 0 1 1 0-225.496538 112.748269 112.748269 0 0 1 0 225.496538z" fill="#3BAFDA" p-id="8633"></path><path d="M489.527133 139.31642a112.748269 112.748269 0 1 0 0 225.496538 112.748269 112.748269 0 0 0 0-225.496538z m-0.025596 215.923813a105.146399 105.146399 0 1 1 0-210.267203 105.146399 105.146399 0 0 1 0 210.267203z" fill="#7AC3E1" p-id="8634"></path><path d="M648.296148 543.751244m-46.020746 0a46.020746 46.020746 0 1 0 92.041493 0 46.020746 46.020746 0 1 0-92.041493 0Z" fill="#EAAD6C" p-id="8635"></path><path d="M742.410878 559.825231a149.580223 149.580223 0 0 0-16.355538 2.482765l16.355538-2.482765z" fill="#7AC3E1" p-id="8636"></path><path d="M639.696053 642.62674h24.520509c2.610743 0 4.223261-1.254181 4.837554-3.762541 1.151798-4.428025 2.431574-12.720974 3.864923-24.750869l0.025596-0.255955a78.322294 78.322294 0 0 0 12.234659-5.119104l0.204764 0.153573 0.409528-0.255955 17.968056 14.077536a6.706026 6.706026 0 0 0 3.506586 1.20299c1.970855 0 6.194116-3.19944 12.644187-9.54713a138.215812 138.215812 0 0 0 13.309671-14.51266 4.40243 4.40243 0 0 0 1.20299-3.097058 5.119104 5.119104 0 0 0-1.330967-3.353013 334.891794 334.891794 0 0 1-14.23111-18.351989c1.740495-3.250631 3.4298-7.192341 5.093509-11.901917h0.051191l0.076786-0.358337c-6.731622 1.586922-12.874547 3.583373-17.968055 6.373285-13.25848 7.269128-38.470068 38.137326-66.420377 73.459144z" fill="#3BAFDA" p-id="8637"></path><path d="M751.497288 557.112105a5.170295 5.170295 0 0 0 1.075012-3.097058v-29.844377a4.991127 4.991127 0 0 0-1.075012-3.148249 4.17207 4.17207 0 0 0-2.815507-1.689304l-24.494914-3.736946c2.278001 7.345914 3.506586 15.152548 3.506587 23.240733l-0.025596 0.28155a78.271103 78.271103 0 0 0-3.480991-22.959182l-0.127977-0.025595a79.909216 79.909216 0 0 0-5.503037-13.181694l0.076786-0.102382c1.612518-2.22681 3.992901-5.349464 7.192342-9.36796 3.225036-4.095283 5.503037-7.064364 6.859599-8.932837a5.170295 5.170295 0 0 0 1.075012-3.097058 4.300047 4.300047 0 0 0-0.947034-2.96908c-3.225036-4.581598-10.622141-12.183468-22.191317-22.856801a5.195891 5.195891 0 0 0-3.353013-1.330967 4.351239 4.351239 0 0 0-3.225036 1.20299l-18.915089 14.231109-0.204765 0.153574a81.82888 81.82888 0 0 0-12.106681-4.991127l-0.051191-0.307146-3.71135-24.443723a3.992901 3.992901 0 0 0-1.535732-2.892293 5.093509 5.093509 0 0 0-3.301822-1.151799h-29.844377c-2.610743 0-4.223261 1.254181-4.837554 3.762542-1.151798 4.453621-2.431574 12.695378-3.864923 24.750868l-0.025596 0.255955a78.322294 78.322294 0 0 0-12.234659 5.119105l-0.204764-0.153573-18.351988-14.23111a5.733397 5.733397 0 0 0-3.506587-1.330967c-1.177394 0-3.250631 1.279776-6.040542 3.557777a175.534082 175.534082 0 0 0-17.635314 17.66091 46.68623 46.68623 0 0 0-2.252406 2.841102 5.605419 5.605419 0 0 0-1.20299 3.097058c0 1.075012 0.460719 2.150024 1.330967 3.225036 5.963756 7.217937 10.724523 13.360862 14.307897 18.454371l0.076786 0.102382a67.290624 67.290624 0 0 0-5.247082 12.362636h-0.051191l-24.930037 3.736946a4.018497 4.018497 0 0 0-2.559552 1.766091 5.170295 5.170295 0 0 0-1.075012 3.097058v29.844377a5.119104 5.119104 0 0 0 1.075012 3.173845 4.17207 4.17207 0 0 0 2.815507 1.689304l24.469318 3.608969 0.153573 0.025595c1.254181 4.40243 3.097058 8.830455 5.503037 13.309671l-0.076786 0.102382c-1.612518 2.22681-3.992901 5.349464-7.192342 9.367961-3.225036 4.069688-5.503037 7.064364-6.859599 8.932837a5.221486 5.221486 0 0 0-0.127978 6.194116c3.506586 4.837553 10.903692 12.362637 22.191317 22.575249a4.556003 4.556003 0 0 0 3.353013 1.48454 4.965531 4.965531 0 0 0 3.378609-1.202989l18.761516-14.23111 0.204765-0.153573c3.685755 1.894069 7.704252 3.532182 12.106681 4.965531l0.051191 0.307146 3.71135 24.443723a4.120879 4.120879 0 0 0 1.535732 2.892293c0.947034 0.767866 2.047642 1.126203 3.301822 1.126203h5.323868c27.950309-35.321819 53.161897-66.190017 66.394781-73.459144 5.093509-2.789912 11.236434-4.786362 17.968056-6.373285l0.051191-0.23036 1.894068-0.28155c5.093509-1.100607 10.596546-1.868473 16.355538-2.482766l6.39888-0.97263a3.992901 3.992901 0 0 0 2.68753-1.7149z m-77.835979 6.603645c-6.731622 6.731622-14.845402 10.084635-24.34134 10.084635s-17.609718-3.353013-24.34134-10.084635a33.120604 33.120604 0 0 1-10.084635-24.341341c0-9.495938 3.353013-17.609718 10.084635-24.34134s14.845402-10.084635 24.34134-10.084635 17.609718 3.353013 24.34134 10.084635 10.084635 14.845402 10.084635 24.34134a33.274177 33.274177 0 0 1-10.084635 24.341341z" fill="#3BAFDA" p-id="8638"></path></svg>